<svg xmlns="http://www.w3.org/2000/svg" version="1.1" xmlns:xlink="http://www.w3.org/1999/xlink" xmlns:svgjs="http://svgjs.dev/svgjs" width="1920" height="1080" preserveAspectRatio="none" viewBox="0 0 1920 1080"><g mask="url(&quot;#SvgjsMask1142&quot;)" fill="none"><rect width="1920" height="1080" x="0" y="0" fill="url(&quot;#SvgjsLinearGradient1143&quot;)"></rect><path d="M0 0L732.09 0L0 470.39z" fill="rgba(255, 255, 255, .1)"></path><path d="M0 470.39L732.09 0L1154.7 0L0 567.9z" fill="rgba(255, 255, 255, .075)"></path><path d="M0 567.9L1154.7 0L1538.88 0L0 849.23z" fill="rgba(255, 255, 255, .05)"></path><path d="M0 849.23L1538.88 0L1687.3000000000002 0L0 939.87z" fill="rgba(255, 255, 255, .025)"></path><path d="M1920 1080L1229.3400000000001 1080L1920 784.49z" fill="rgba(0, 0, 0, .1)"></path><path d="M1920 784.49L1229.3400000000001 1080L782.6100000000001 1080L1920 409.06z" fill="rgba(0, 0, 0, .075)"></path><path d="M1920 409.05999999999995L782.6100000000001 1080L608.1800000000001 1080L1920 258.91999999999996z" fill="rgba(0, 0, 0, .05)"></path><path d="M1920 258.91999999999996L608.1800000000001 1080L181.37000000000006 1080L1920 131.20999999999998z" fill="rgba(0, 0, 0, .025)"></path></g><defs><mask id="SvgjsMask1142"><rect width="1920" height="1080" fill="#ffffff"></rect></mask><linearGradient x1="89.06%" y1="119.44%" x2="10.94%" y2="-19.44%" gradientUnits="userSpaceOnUse" id="SvgjsLinearGradient1143"><stop stop-color="#0e2a47" offset="0"></stop><stop stop-color="rgba(87, 1, 95, 1)" offset="1"></stop></linearGradient></defs></svg>